<mxfile host="app.diagrams.net" agent="Mozilla/5.0 (Macintosh; Intel Mac OS X 10_15_7) AppleWebKit/605.1.15 (KHTML, like Gecko) Version/17.6 Safari/605.1.15" version="27.1.6">
  <diagram name="Page-1" id="D1g_SZzbeWnJD4f1NKeQ">
    <mxGraphModel dx="1198" dy="820" grid="1" gridSize="10" guides="1" tooltips="1" connect="1" arrows="1" fold="1" page="1" pageScale="1" pageWidth="850" pageHeight="1100" math="0" shadow="0">
      <root>
        <mxCell id="0" />
        <mxCell id="1" parent="0" />
        <mxCell id="yMIhiDGG9D9ogBYTGZqW-4" value="API Authentication" style="text;html=1;align=center;verticalAlign=middle;whiteSpace=wrap;rounded=0;" parent="1" vertex="1">
          <mxGeometry x="110" y="20" width="60" height="30" as="geometry" />
        </mxCell>
        <mxCell id="yMIhiDGG9D9ogBYTGZqW-6" value="start" style="ellipse;whiteSpace=wrap;html=1;" parent="1" vertex="1">
          <mxGeometry x="260" y="50" width="120" height="80" as="geometry" />
        </mxCell>
        <mxCell id="yMIhiDGG9D9ogBYTGZqW-7" value="" style="endArrow=classic;html=1;rounded=0;exitX=0.5;exitY=1;exitDx=0;exitDy=0;entryX=0.5;entryY=0;entryDx=0;entryDy=0;" parent="1" source="yMIhiDGG9D9ogBYTGZqW-6" edge="1">
          <mxGeometry width="50" height="50" relative="1" as="geometry">
            <mxPoint x="300" y="260" as="sourcePoint" />
            <mxPoint x="320" y="230" as="targetPoint" />
          </mxGeometry>
        </mxCell>
        <mxCell id="yMIhiDGG9D9ogBYTGZqW-9" value="username,&amp;nbsp;&lt;div&gt;password , API key&lt;/div&gt;" style="text;html=1;align=center;verticalAlign=middle;whiteSpace=wrap;rounded=0;" parent="1" vertex="1">
          <mxGeometry x="330" y="150" width="110" height="50" as="geometry" />
        </mxCell>
        <mxCell id="yMIhiDGG9D9ogBYTGZqW-22" style="edgeStyle=orthogonalEdgeStyle;rounded=0;orthogonalLoop=1;jettySize=auto;html=1;exitX=0;exitY=0.5;exitDx=0;exitDy=0;" parent="1" source="yMIhiDGG9D9ogBYTGZqW-12" target="yMIhiDGG9D9ogBYTGZqW-21" edge="1">
          <mxGeometry relative="1" as="geometry" />
        </mxCell>
        <mxCell id="yMIhiDGG9D9ogBYTGZqW-25" style="edgeStyle=orthogonalEdgeStyle;rounded=0;orthogonalLoop=1;jettySize=auto;html=1;exitX=1;exitY=0.5;exitDx=0;exitDy=0;entryX=0.5;entryY=0;entryDx=0;entryDy=0;" parent="1" source="yMIhiDGG9D9ogBYTGZqW-12" target="yMIhiDGG9D9ogBYTGZqW-24" edge="1">
          <mxGeometry relative="1" as="geometry" />
        </mxCell>
        <mxCell id="yMIhiDGG9D9ogBYTGZqW-12" value="check if the username and password are linked to the API key" style="rhombus;whiteSpace=wrap;html=1;" parent="1" vertex="1">
          <mxGeometry x="430" y="410" width="110" height="110" as="geometry" />
        </mxCell>
        <mxCell id="yMIhiDGG9D9ogBYTGZqW-16" style="edgeStyle=orthogonalEdgeStyle;rounded=0;orthogonalLoop=1;jettySize=auto;html=1;entryX=0.5;entryY=0;entryDx=0;entryDy=0;" parent="1" source="yMIhiDGG9D9ogBYTGZqW-14" target="yMIhiDGG9D9ogBYTGZqW-12" edge="1">
          <mxGeometry relative="1" as="geometry" />
        </mxCell>
        <mxCell id="yMIhiDGG9D9ogBYTGZqW-19" style="edgeStyle=orthogonalEdgeStyle;rounded=0;orthogonalLoop=1;jettySize=auto;html=1;exitX=0;exitY=0.5;exitDx=0;exitDy=0;entryX=0.5;entryY=0;entryDx=0;entryDy=0;" parent="1" source="yMIhiDGG9D9ogBYTGZqW-14" target="yMIhiDGG9D9ogBYTGZqW-18" edge="1">
          <mxGeometry relative="1" as="geometry" />
        </mxCell>
        <mxCell id="yMIhiDGG9D9ogBYTGZqW-14" value="check if the API key is a valid key" style="rhombus;whiteSpace=wrap;html=1;" parent="1" vertex="1">
          <mxGeometry x="265" y="230" width="105" height="110" as="geometry" />
        </mxCell>
        <mxCell id="yMIhiDGG9D9ogBYTGZqW-17" value="true" style="text;html=1;align=center;verticalAlign=middle;resizable=0;points=[];autosize=1;strokeColor=none;fillColor=none;" parent="1" vertex="1">
          <mxGeometry x="440" y="308" width="40" height="30" as="geometry" />
        </mxCell>
        <mxCell id="yMIhiDGG9D9ogBYTGZqW-18" value="send error saying invalid Authentication details" style="rounded=1;whiteSpace=wrap;html=1;" parent="1" vertex="1">
          <mxGeometry x="110" y="435" width="120" height="60" as="geometry" />
        </mxCell>
        <mxCell id="yMIhiDGG9D9ogBYTGZqW-20" value="false" style="text;html=1;align=center;verticalAlign=middle;resizable=0;points=[];autosize=1;strokeColor=none;fillColor=none;" parent="1" vertex="1">
          <mxGeometry x="200" y="250" width="50" height="30" as="geometry" />
        </mxCell>
        <mxCell id="yMIhiDGG9D9ogBYTGZqW-21" value="send error saying invalid Authentication details" style="rounded=1;whiteSpace=wrap;html=1;" parent="1" vertex="1">
          <mxGeometry x="265" y="570" width="120" height="60" as="geometry" />
        </mxCell>
        <mxCell id="yMIhiDGG9D9ogBYTGZqW-23" value="false" style="text;html=1;align=center;verticalAlign=middle;resizable=0;points=[];autosize=1;strokeColor=none;fillColor=none;" parent="1" vertex="1">
          <mxGeometry x="360" y="470" width="50" height="30" as="geometry" />
        </mxCell>
        <mxCell id="yMIhiDGG9D9ogBYTGZqW-24" value="send a valid JWT token" style="rounded=1;whiteSpace=wrap;html=1;" parent="1" vertex="1">
          <mxGeometry x="590" y="570" width="120" height="60" as="geometry" />
        </mxCell>
        <mxCell id="XCs0zXfmU5zAwr78yoS4-2" value="sending file via email&lt;div&gt;(existing using background job&lt;/div&gt;&lt;div&gt;)&lt;/div&gt;" style="text;html=1;align=center;verticalAlign=middle;resizable=0;points=[];autosize=1;strokeColor=none;fillColor=none;" vertex="1" parent="1">
          <mxGeometry x="915" y="83" width="190" height="60" as="geometry" />
        </mxCell>
        <mxCell id="XCs0zXfmU5zAwr78yoS4-6" style="edgeStyle=orthogonalEdgeStyle;rounded=0;orthogonalLoop=1;jettySize=auto;html=1;exitX=0.5;exitY=1;exitDx=0;exitDy=0;entryX=0.5;entryY=0;entryDx=0;entryDy=0;" edge="1" parent="1" source="XCs0zXfmU5zAwr78yoS4-3" target="XCs0zXfmU5zAwr78yoS4-5">
          <mxGeometry relative="1" as="geometry" />
        </mxCell>
        <mxCell id="XCs0zXfmU5zAwr78yoS4-3" value="check the email delta link and see if there is any change in the email using a delta link" style="rounded=1;whiteSpace=wrap;html=1;" vertex="1" parent="1">
          <mxGeometry x="1150" y="520" width="140" height="80" as="geometry" />
        </mxCell>
        <mxCell id="XCs0zXfmU5zAwr78yoS4-35" style="edgeStyle=orthogonalEdgeStyle;rounded=0;orthogonalLoop=1;jettySize=auto;html=1;exitX=0.5;exitY=1;exitDx=0;exitDy=0;entryX=0.5;entryY=0;entryDx=0;entryDy=0;" edge="1" parent="1" source="XCs0zXfmU5zAwr78yoS4-5" target="XCs0zXfmU5zAwr78yoS4-33">
          <mxGeometry relative="1" as="geometry" />
        </mxCell>
        <mxCell id="XCs0zXfmU5zAwr78yoS4-5" value="get all the emails&lt;div&gt;(new_emails)&lt;/div&gt;" style="rounded=1;whiteSpace=wrap;html=1;" vertex="1" parent="1">
          <mxGeometry x="1160" y="670" width="120" height="60" as="geometry" />
        </mxCell>
        <mxCell id="XCs0zXfmU5zAwr78yoS4-14" style="edgeStyle=orthogonalEdgeStyle;rounded=0;orthogonalLoop=1;jettySize=auto;html=1;exitX=1;exitY=0.5;exitDx=0;exitDy=0;" edge="1" parent="1" source="XCs0zXfmU5zAwr78yoS4-7" target="XCs0zXfmU5zAwr78yoS4-13">
          <mxGeometry relative="1" as="geometry" />
        </mxCell>
        <mxCell id="XCs0zXfmU5zAwr78yoS4-28" style="edgeStyle=orthogonalEdgeStyle;rounded=0;orthogonalLoop=1;jettySize=auto;html=1;exitX=0;exitY=0.5;exitDx=0;exitDy=0;entryX=0;entryY=0.5;entryDx=0;entryDy=0;" edge="1" parent="1" source="XCs0zXfmU5zAwr78yoS4-7" target="XCs0zXfmU5zAwr78yoS4-25">
          <mxGeometry relative="1" as="geometry">
            <mxPoint x="970" y="290" as="targetPoint" />
            <Array as="points">
              <mxPoint x="1060" y="970" />
              <mxPoint x="1060" y="298" />
            </Array>
          </mxGeometry>
        </mxCell>
        <mxCell id="XCs0zXfmU5zAwr78yoS4-7" value="for x in new_emails" style="rhombus;whiteSpace=wrap;html=1;" vertex="1" parent="1">
          <mxGeometry x="1155" y="910" width="130" height="120" as="geometry" />
        </mxCell>
        <mxCell id="XCs0zXfmU5zAwr78yoS4-12" style="edgeStyle=orthogonalEdgeStyle;rounded=0;orthogonalLoop=1;jettySize=auto;html=1;exitX=0.5;exitY=1;exitDx=0;exitDy=0;entryX=0.5;entryY=0;entryDx=0;entryDy=0;" edge="1" parent="1" source="XCs0zXfmU5zAwr78yoS4-9" target="XCs0zXfmU5zAwr78yoS4-11">
          <mxGeometry relative="1" as="geometry" />
        </mxCell>
        <mxCell id="XCs0zXfmU5zAwr78yoS4-9" value="add the email details to sql" style="rounded=1;whiteSpace=wrap;html=1;" vertex="1" parent="1">
          <mxGeometry x="1475" y="1060" width="120" height="60" as="geometry" />
        </mxCell>
        <mxCell id="XCs0zXfmU5zAwr78yoS4-17" style="edgeStyle=orthogonalEdgeStyle;rounded=0;orthogonalLoop=1;jettySize=auto;html=1;exitX=0.5;exitY=1;exitDx=0;exitDy=0;entryX=0.5;entryY=0;entryDx=0;entryDy=0;" edge="1" parent="1" source="XCs0zXfmU5zAwr78yoS4-11" target="XCs0zXfmU5zAwr78yoS4-16">
          <mxGeometry relative="1" as="geometry" />
        </mxCell>
        <mxCell id="XCs0zXfmU5zAwr78yoS4-11" value="add emails to storage queue&lt;div&gt;(status of transaction email in queue for processing)&lt;/div&gt;" style="rounded=1;whiteSpace=wrap;html=1;" vertex="1" parent="1">
          <mxGeometry x="1475" y="1180" width="120" height="80" as="geometry" />
        </mxCell>
        <mxCell id="XCs0zXfmU5zAwr78yoS4-15" style="edgeStyle=orthogonalEdgeStyle;rounded=0;orthogonalLoop=1;jettySize=auto;html=1;exitX=0.5;exitY=1;exitDx=0;exitDy=0;" edge="1" parent="1" source="XCs0zXfmU5zAwr78yoS4-13" target="XCs0zXfmU5zAwr78yoS4-9">
          <mxGeometry relative="1" as="geometry" />
        </mxCell>
        <mxCell id="XCs0zXfmU5zAwr78yoS4-13" value="create a transaction" style="rounded=1;whiteSpace=wrap;html=1;" vertex="1" parent="1">
          <mxGeometry x="1475" y="940" width="120" height="60" as="geometry" />
        </mxCell>
        <mxCell id="XCs0zXfmU5zAwr78yoS4-18" style="edgeStyle=orthogonalEdgeStyle;rounded=0;orthogonalLoop=1;jettySize=auto;html=1;exitX=0;exitY=0.5;exitDx=0;exitDy=0;entryX=0.5;entryY=1;entryDx=0;entryDy=0;" edge="1" parent="1" source="XCs0zXfmU5zAwr78yoS4-16" target="XCs0zXfmU5zAwr78yoS4-7">
          <mxGeometry relative="1" as="geometry" />
        </mxCell>
        <mxCell id="XCs0zXfmU5zAwr78yoS4-16" value="send transaction id , status , subject of email , name of attachment to client&amp;nbsp;&lt;div&gt;(via email)&lt;/div&gt;" style="rounded=1;whiteSpace=wrap;html=1;" vertex="1" parent="1">
          <mxGeometry x="1475" y="1310" width="120" height="80" as="geometry" />
        </mxCell>
        <mxCell id="XCs0zXfmU5zAwr78yoS4-19" value="true" style="text;html=1;align=center;verticalAlign=middle;resizable=0;points=[];autosize=1;strokeColor=none;fillColor=none;" vertex="1" parent="1">
          <mxGeometry x="1325" y="940" width="40" height="30" as="geometry" />
        </mxCell>
        <mxCell id="XCs0zXfmU5zAwr78yoS4-29" style="edgeStyle=orthogonalEdgeStyle;rounded=0;orthogonalLoop=1;jettySize=auto;html=1;exitX=0.5;exitY=1;exitDx=0;exitDy=0;entryX=0.5;entryY=0;entryDx=0;entryDy=0;" edge="1" parent="1" source="XCs0zXfmU5zAwr78yoS4-24" target="XCs0zXfmU5zAwr78yoS4-25">
          <mxGeometry relative="1" as="geometry" />
        </mxCell>
        <mxCell id="XCs0zXfmU5zAwr78yoS4-24" value="start" style="ellipse;whiteSpace=wrap;html=1;" vertex="1" parent="1">
          <mxGeometry x="1160" y="83" width="120" height="80" as="geometry" />
        </mxCell>
        <mxCell id="XCs0zXfmU5zAwr78yoS4-26" style="edgeStyle=orthogonalEdgeStyle;rounded=0;orthogonalLoop=1;jettySize=auto;html=1;exitX=0.5;exitY=1;exitDx=0;exitDy=0;entryX=0.5;entryY=0;entryDx=0;entryDy=0;" edge="1" parent="1" source="XCs0zXfmU5zAwr78yoS4-25" target="XCs0zXfmU5zAwr78yoS4-3">
          <mxGeometry relative="1" as="geometry" />
        </mxCell>
        <mxCell id="XCs0zXfmU5zAwr78yoS4-32" style="edgeStyle=orthogonalEdgeStyle;rounded=0;orthogonalLoop=1;jettySize=auto;html=1;exitX=1;exitY=0.5;exitDx=0;exitDy=0;entryX=0;entryY=0.5;entryDx=0;entryDy=0;" edge="1" parent="1" source="XCs0zXfmU5zAwr78yoS4-25" target="XCs0zXfmU5zAwr78yoS4-31">
          <mxGeometry relative="1" as="geometry" />
        </mxCell>
        <mxCell id="XCs0zXfmU5zAwr78yoS4-25" value="for y in client_emails_api" style="rhombus;whiteSpace=wrap;html=1;" vertex="1" parent="1">
          <mxGeometry x="1142.5" y="230" width="155" height="135" as="geometry" />
        </mxCell>
        <mxCell id="XCs0zXfmU5zAwr78yoS4-27" value="true" style="text;html=1;align=center;verticalAlign=middle;resizable=0;points=[];autosize=1;strokeColor=none;fillColor=none;" vertex="1" parent="1">
          <mxGeometry x="1235" y="418" width="40" height="30" as="geometry" />
        </mxCell>
        <mxCell id="XCs0zXfmU5zAwr78yoS4-31" value="end" style="ellipse;whiteSpace=wrap;html=1;" vertex="1" parent="1">
          <mxGeometry x="1440" y="257.5" width="120" height="80" as="geometry" />
        </mxCell>
        <mxCell id="XCs0zXfmU5zAwr78yoS4-36" style="edgeStyle=orthogonalEdgeStyle;rounded=0;orthogonalLoop=1;jettySize=auto;html=1;exitX=0.5;exitY=1;exitDx=0;exitDy=0;entryX=0.5;entryY=0;entryDx=0;entryDy=0;" edge="1" parent="1" source="XCs0zXfmU5zAwr78yoS4-33" target="XCs0zXfmU5zAwr78yoS4-7">
          <mxGeometry relative="1" as="geometry" />
        </mxCell>
        <mxCell id="XCs0zXfmU5zAwr78yoS4-38" style="edgeStyle=orthogonalEdgeStyle;rounded=0;orthogonalLoop=1;jettySize=auto;html=1;exitX=0;exitY=0.5;exitDx=0;exitDy=0;entryX=0;entryY=0.5;entryDx=0;entryDy=0;" edge="1" parent="1" source="XCs0zXfmU5zAwr78yoS4-33" target="XCs0zXfmU5zAwr78yoS4-25">
          <mxGeometry relative="1" as="geometry" />
        </mxCell>
        <mxCell id="XCs0zXfmU5zAwr78yoS4-33" value="if (length(new_emails &amp;gt; 0))" style="rhombus;whiteSpace=wrap;html=1;" vertex="1" parent="1">
          <mxGeometry x="1167.5" y="770" width="105" height="110" as="geometry" />
        </mxCell>
        <mxCell id="XCs0zXfmU5zAwr78yoS4-37" value="true" style="text;html=1;align=center;verticalAlign=middle;resizable=0;points=[];autosize=1;strokeColor=none;fillColor=none;" vertex="1" parent="1">
          <mxGeometry x="1232.5" y="880" width="40" height="30" as="geometry" />
        </mxCell>
        <mxCell id="XCs0zXfmU5zAwr78yoS4-39" value="false" style="text;html=1;align=center;verticalAlign=middle;resizable=0;points=[];autosize=1;strokeColor=none;fillColor=none;" vertex="1" parent="1">
          <mxGeometry x="1080" y="668" width="50" height="30" as="geometry" />
        </mxCell>
        <mxCell id="XCs0zXfmU5zAwr78yoS4-40" value="File is picked up by background &amp;nbsp;job from queue" style="text;html=1;align=center;verticalAlign=middle;whiteSpace=wrap;rounded=0;" vertex="1" parent="1">
          <mxGeometry x="1710" y="30" width="200" height="80" as="geometry" />
        </mxCell>
        <mxCell id="XCs0zXfmU5zAwr78yoS4-42" style="edgeStyle=orthogonalEdgeStyle;rounded=0;orthogonalLoop=1;jettySize=auto;html=1;exitX=0.5;exitY=1;exitDx=0;exitDy=0;" edge="1" parent="1" source="XCs0zXfmU5zAwr78yoS4-41">
          <mxGeometry relative="1" as="geometry">
            <mxPoint x="2125" y="210" as="targetPoint" />
          </mxGeometry>
        </mxCell>
        <mxCell id="XCs0zXfmU5zAwr78yoS4-41" value="start" style="ellipse;whiteSpace=wrap;html=1;" vertex="1" parent="1">
          <mxGeometry x="2065" y="70" width="120" height="80" as="geometry" />
        </mxCell>
        <mxCell id="XCs0zXfmU5zAwr78yoS4-47" style="edgeStyle=orthogonalEdgeStyle;rounded=0;orthogonalLoop=1;jettySize=auto;html=1;exitX=1;exitY=0.5;exitDx=0;exitDy=0;entryX=0;entryY=0.5;entryDx=0;entryDy=0;" edge="1" parent="1" source="XCs0zXfmU5zAwr78yoS4-43" target="XCs0zXfmU5zAwr78yoS4-46">
          <mxGeometry relative="1" as="geometry" />
        </mxCell>
        <mxCell id="XCs0zXfmU5zAwr78yoS4-56" style="edgeStyle=orthogonalEdgeStyle;rounded=0;orthogonalLoop=1;jettySize=auto;html=1;exitX=0.5;exitY=1;exitDx=0;exitDy=0;entryX=0.5;entryY=0;entryDx=0;entryDy=0;" edge="1" parent="1" source="XCs0zXfmU5zAwr78yoS4-43" target="XCs0zXfmU5zAwr78yoS4-55">
          <mxGeometry relative="1" as="geometry" />
        </mxCell>
        <mxCell id="XCs0zXfmU5zAwr78yoS4-43" value="if (next item is available)" style="rhombus;whiteSpace=wrap;html=1;" vertex="1" parent="1">
          <mxGeometry x="2068" y="325" width="115" height="110" as="geometry" />
        </mxCell>
        <mxCell id="XCs0zXfmU5zAwr78yoS4-45" style="edgeStyle=orthogonalEdgeStyle;rounded=0;orthogonalLoop=1;jettySize=auto;html=1;exitX=0.5;exitY=1;exitDx=0;exitDy=0;entryX=0.5;entryY=0;entryDx=0;entryDy=0;" edge="1" parent="1" source="XCs0zXfmU5zAwr78yoS4-44" target="XCs0zXfmU5zAwr78yoS4-43">
          <mxGeometry relative="1" as="geometry" />
        </mxCell>
        <mxCell id="XCs0zXfmU5zAwr78yoS4-44" value="hit the queue to receive the next&amp;nbsp;" style="rounded=1;whiteSpace=wrap;html=1;" vertex="1" parent="1">
          <mxGeometry x="2065" y="210" width="120" height="60" as="geometry" />
        </mxCell>
        <mxCell id="XCs0zXfmU5zAwr78yoS4-49" style="edgeStyle=orthogonalEdgeStyle;rounded=0;orthogonalLoop=1;jettySize=auto;html=1;exitX=0.5;exitY=1;exitDx=0;exitDy=0;entryX=0.5;entryY=0;entryDx=0;entryDy=0;" edge="1" parent="1" source="XCs0zXfmU5zAwr78yoS4-46" target="XCs0zXfmU5zAwr78yoS4-48">
          <mxGeometry relative="1" as="geometry" />
        </mxCell>
        <mxCell id="XCs0zXfmU5zAwr78yoS4-46" value="identify the type of file&lt;div&gt;(status of transaction file in processing)&lt;/div&gt;" style="rounded=1;whiteSpace=wrap;html=1;" vertex="1" parent="1">
          <mxGeometry x="2330" y="350" width="120" height="60" as="geometry" />
        </mxCell>
        <mxCell id="XCs0zXfmU5zAwr78yoS4-51" style="edgeStyle=orthogonalEdgeStyle;rounded=0;orthogonalLoop=1;jettySize=auto;html=1;exitX=0.5;exitY=1;exitDx=0;exitDy=0;entryX=0.5;entryY=0;entryDx=0;entryDy=0;" edge="1" parent="1" source="XCs0zXfmU5zAwr78yoS4-48" target="XCs0zXfmU5zAwr78yoS4-50">
          <mxGeometry relative="1" as="geometry" />
        </mxCell>
        <mxCell id="XCs0zXfmU5zAwr78yoS4-48" value="send the file to GPT" style="rounded=1;whiteSpace=wrap;html=1;" vertex="1" parent="1">
          <mxGeometry x="2330" y="470" width="120" height="60" as="geometry" />
        </mxCell>
        <mxCell id="XCs0zXfmU5zAwr78yoS4-52" style="edgeStyle=orthogonalEdgeStyle;rounded=0;orthogonalLoop=1;jettySize=auto;html=1;exitX=0.5;exitY=1;exitDx=0;exitDy=0;entryX=0;entryY=0.5;entryDx=0;entryDy=0;" edge="1" parent="1" source="XCs0zXfmU5zAwr78yoS4-50" target="XCs0zXfmU5zAwr78yoS4-44">
          <mxGeometry relative="1" as="geometry">
            <Array as="points">
              <mxPoint x="2390" y="690" />
              <mxPoint x="1960" y="690" />
              <mxPoint x="1960" y="240" />
            </Array>
          </mxGeometry>
        </mxCell>
        <mxCell id="XCs0zXfmU5zAwr78yoS4-50" value="store the output in db&amp;nbsp;&lt;div&gt;(status of transaction file processing complete)&lt;/div&gt;" style="rounded=1;whiteSpace=wrap;html=1;" vertex="1" parent="1">
          <mxGeometry x="2325" y="600" width="130" height="70" as="geometry" />
        </mxCell>
        <mxCell id="XCs0zXfmU5zAwr78yoS4-53" value="true" style="text;html=1;align=center;verticalAlign=middle;resizable=0;points=[];autosize=1;strokeColor=none;fillColor=none;" vertex="1" parent="1">
          <mxGeometry x="2200" y="350" width="40" height="30" as="geometry" />
        </mxCell>
        <mxCell id="XCs0zXfmU5zAwr78yoS4-55" value="end" style="ellipse;whiteSpace=wrap;html=1;" vertex="1" parent="1">
          <mxGeometry x="2065.5" y="520" width="120" height="80" as="geometry" />
        </mxCell>
        <mxCell id="XCs0zXfmU5zAwr78yoS4-57" value="false" style="text;html=1;align=center;verticalAlign=middle;whiteSpace=wrap;rounded=0;" vertex="1" parent="1">
          <mxGeometry x="2060" y="440" width="60" height="30" as="geometry" />
        </mxCell>
      </root>
    </mxGraphModel>
  </diagram>
</mxfile>
